<?xml version="1.0" encoding="utf-8"?>
<!-- Generator: Adobe Illustrator 28.3.0, SVG Export Plug-In . SVG Version: 6.00 Build 0)  -->
<svg version="1.1" id="图层_1" xmlns="http://www.w3.org/2000/svg" xmlns:xlink="http://www.w3.org/1999/xlink" x="0px" y="0px"
	 viewBox="0 0 434.57 59.53" style="enable-background:new 0 0 434.57 59.53;" xml:space="preserve">
<style type="text/css">
	.st0{fill:#F3F3F3;}
	.st1{fill:url(#SVGID_1_);}
	.st2{fill:url(#SVGID_00000025411618512371806660000007499445179976068508_);}
	.st3{fill:url(#SVGID_00000140696638337458531170000014034842320407830684_);}
	.st4{fill:url(#SVGID_00000070082538625158753440000016432396691521387178_);}
	.st5{fill:url(#SVGID_00000031923816923934903610000006265102885873344174_);}
	.st6{fill:url(#SVGID_00000014602237254845186860000010200894276804960643_);}
</style>
<g>
	<path class="st0" d="M434.57,2.27v55.73l0,0c-7.29,0-13.2-5.76-13.2-12.86v-9.9h-34.9v9.9c0,7.1-5.91,12.86-13.2,12.86l0,0V2.27
		l0,0c7.29,0,13.2,5.76,13.2,12.86v9.9h34.9v-9.9C421.37,8.03,427.28,2.27,434.57,2.27L434.57,2.27z"/>
	<path class="st0" d="M160.23,2.27L160.23,2.27c7.35,0,13.3,5.8,13.3,12.96v42.77h0c-9.25,0-18.15-3.45-24.88-9.64l-33.94-31.23
		v28.01c0,7.1-5.91,12.86-13.21,12.86h0V2.27h0c9.25,0,18.15,3.45,24.87,9.65l33.85,31.22V2.27z"/>
	<path class="st0" d="M277.19,58.05h-6.11c-6.25,0-12.12-2.96-15.73-7.93l-23.36-32.17l-23.36,32.17
		c-3.61,4.98-9.48,7.93-15.73,7.93h-6.11l37.16-51.18l0.65-0.9c3.61-4.97,11.17-4.97,14.78,0l0.65,0.9L277.19,58.05z"/>
	<path class="st0" d="M300.57,47.79h40.02c0.16,0.01,0.34,0.03,0.52,0.03c0.18,0,0.34-0.01,0.51-0.03c1.99-0.23,3.55-1.77,3.76-3.72
		v-0.04c0.02-0.12,0.02-0.25,0.02-0.38c0-0.15,0-0.29-0.02-0.42v-3.37c0.02-0.13,0.02-0.28,0.02-0.42c0-0.15,0-0.29-0.02-0.42
		c-0.21-1.97-1.81-3.54-3.84-3.74c-0.13-0.01-0.28-0.01-0.43-0.01c-0.15,0-0.3,0-0.43,0.01h-40.11c-7.69,0-13.9-4.81-13.9-10.77
		V13.04c0-5.96,6.21-10.77,13.9-10.77h44.22c7.42,0,13.59,4.58,13.89,10.34c0.01,0.14-13.59-0.11-13.89-0.11h-40.67
		c-2.16,0-3.94,1.55-4.24,3.58c-0.03,0.19-0.05,0.39-0.05,0.6c0,0.2,0.01,0.41,0.05,0.6v2.98c-0.03,0.19-0.05,0.39-0.05,0.6
		c0,0.2,0.01,0.41,0.05,0.6c0.3,2.03,2.08,3.58,4.24,3.58h40.67c7.6,0,13.9,4.81,13.9,10.77v11.45c0,5.96-6.3,10.77-13.9,10.77
		h-44.22c-7.5,0-13.59-4.57-13.89-10.32"/>
</g>
<g>
	<linearGradient id="SVGID_1_" gradientUnits="userSpaceOnUse" x1="44.0186" y1="53.6125" x2="80.9306" y2="-4.7299">
		<stop  offset="0" style="stop-color:#FFFFFF"/>
		<stop  offset="0.7774" style="stop-color:#9E9E9E"/>
	</linearGradient>
	<path class="st1" d="M51.58,44.43V33.01v-0.1c-0.55-16.19-15.16-17.29-15.16-17.29h0v28.8c0,8.34,6.94,15.1,15.5,15.1h18.84
		c1.14,0,2.07-0.9,2.07-2.02V46.44c0-1.11-0.93-2.02-2.07-2.02H51.58z"/>
	<g>
		
			<linearGradient id="SVGID_00000124877398140161368230000006628503202668663956_" gradientUnits="userSpaceOnUse" x1="74.4673" y1="6.9114" x2="40.4349" y2="14.7015">
			<stop  offset="0" style="stop-color:#FFFFFF"/>
			<stop  offset="1" style="stop-color:#9E9E9E"/>
		</linearGradient>
		<path style="fill:url(#SVGID_00000124877398140161368230000006628503202668663956_);" d="M72.92,2.77v10.68
			c0,1.11-0.93,2.01-2.07,2.01h-4.94c-7,0-12.86,5.2-14.28,12.12l0.08-8.99c0,0,0-0.3-0.02-0.8c-0.08-1.45-0.43-4.65-1.96-7.6
			c-0.18-0.34-0.37-0.68-0.58-1.01c0,0-1.72-3.63-6.43-6.13C42.62,3,42.54,2.96,42.45,2.92c-0.15-0.08-0.3-0.16-0.45-0.23
			c-0.13-0.07-0.26-0.13-0.4-0.2c-0.29-0.14-0.59-0.27-0.9-0.4c-0.06-0.02-0.12-0.04-0.17-0.07c-0.27-0.11-0.54-0.21-0.82-0.3
			c-0.08-0.03-0.17-0.05-0.25-0.08c-0.28-0.09-0.56-0.17-0.84-0.25c-0.06-0.02-0.12-0.03-0.18-0.05c-0.69-0.18-1.4-0.32-2.12-0.42
			c-0.08-0.01-0.17-0.02-0.25-0.03c-0.28-0.03-0.57-0.06-0.86-0.08c-0.09-0.01-0.18-0.01-0.27-0.02c-0.36-0.02-0.72-0.03-1.08-0.04
			v0h32.02h4.94C71.99,0.76,72.92,1.66,72.92,2.77z"/>
	</g>
	<path class="st0" d="M14.32,59.53H2c-1.1,0-2-0.9-2-2l0-11.1c0-1.1,0.9-2,2-2h12.32c1.1,0,2,0.9,2,2v11.1
		C16.32,58.63,15.43,59.53,14.32,59.53z"/>
	
		<linearGradient id="SVGID_00000023249015099856415010000003967918976850346419_" gradientUnits="userSpaceOnUse" x1="-703.2056" y1="-2588.2834" x2="-678.8443" y2="-2613.3088" gradientTransform="matrix(0 -1 1 0 2633.8547 -673.8417)">
		<stop  offset="0.0215" style="stop-color:#FFFFFF"/>
		<stop  offset="1" style="stop-color:#ADADAD"/>
	</linearGradient>
	<path style="fill:url(#SVGID_00000023249015099856415010000003967918976850346419_);" d="M51.68,17.79
		c-0.08-1.45-0.43-4.65-1.96-7.6c-0.18-0.34-0.37-0.68-0.58-1.01c0,0-1.72-3.63-6.43-6.13C42.62,3,42.54,2.96,42.45,2.92
		c-0.15-0.08-0.3-0.16-0.45-0.23c-0.13-0.07-0.26-0.13-0.4-0.2c-0.29-0.14-0.59-0.27-0.9-0.4c-0.06-0.02-0.12-0.04-0.17-0.07
		c-0.27-0.11-0.54-0.21-0.82-0.3c-0.08-0.03-0.17-0.05-0.25-0.08c-0.28-0.09-0.56-0.17-0.84-0.25c-0.06-0.02-0.12-0.03-0.18-0.05
		c-0.69-0.18-1.4-0.32-2.12-0.42c-0.08-0.01-0.17-0.02-0.25-0.03c-0.28-0.03-0.57-0.06-0.86-0.08c-0.09-0.01-0.18-0.01-0.27-0.02
		c-0.33-0.02-0.66-0.03-0.99-0.03v0c-3.22,0.05-6.23,0.92-8.82,2.42c-2.7,1.56-4.95,3.79-6.5,6.45c-1.48,2.54-2.32,5.47-2.32,8.6
		v7.15c0.4-0.67,0.84-1.32,1.33-1.94c0.55-0.7,1.14-1.37,1.78-2c3.87-3.75,8.99-5.82,14.43-5.82h2.56h0c0,0,14.61,1.1,15.16,17.29
		v0.1l0.12-14.42C51.7,18.59,51.71,18.3,51.68,17.79z"/>
	
		<linearGradient id="SVGID_00000035516432811207862050000009927606212155151245_" gradientUnits="userSpaceOnUse" x1="-1.059288e-07" y1="0.7586" x2="33.9706" y2="0.7586">
		<stop  offset="0" style="stop-color:#FFFFFF"/>
		<stop  offset="1" style="stop-color:#A1A0A0"/>
	</linearGradient>
	<path style="fill:url(#SVGID_00000035516432811207862050000009927606212155151245_);" d="M33.97,0.76h-0.11
		C33.9,0.76,33.93,0.76,33.97,0.76L33.97,0.76z"/>
	
		<linearGradient id="SVGID_00000115481590385388895940000015668645220527686800_" gradientUnits="userSpaceOnUse" x1="-704.6187" y1="-2590.7314" x2="-680.8106" y2="-2615.1885" gradientTransform="matrix(0 -1 1 0 2633.8547 -673.8417)">
		<stop  offset="0.0215" style="stop-color:#FFFFFF"/>
		<stop  offset="1" style="stop-color:#ADADAD"/>
	</linearGradient>
	<path style="fill:url(#SVGID_00000115481590385388895940000015668645220527686800_);" d="M18.65,9.63c1.55-2.67,3.8-4.89,6.5-6.45
		c2.59-1.49,5.61-2.37,8.82-2.42v0c-0.04,0-0.07,0-0.11,0c-4.89,0-9.31,1.93-12.52,5.05c-3.2,3.13-5.18,7.44-5.18,12.2v7.62
		c0.05-0.09,0.11-0.17,0.16-0.26v-7.15C16.32,15.1,17.17,12.17,18.65,9.63z"/>
	
		<linearGradient id="SVGID_00000087394661137872602730000015135160075641492880_" gradientUnits="userSpaceOnUse" x1="-15.68" y1="21.2177" x2="49.1101" y2="21.2177">
		<stop  offset="0" style="stop-color:#FFFFFF"/>
		<stop  offset="1" style="stop-color:#A1A0A0"/>
	</linearGradient>
	<path style="fill:url(#SVGID_00000087394661137872602730000015135160075641492880_);" d="M33.86,0.76H16.32h-0.28h-0.28v0.01
		C5.98,0.91,0,8.67,0,18.23v21.44c0,1.11,0.93,2.02,2.07,2.02h12.18c1.14,0,2.07-0.9,2.07-2.02v-3.97V25.38v-7.15
		c0-3.13,0.85-6.06,2.32-8.6c1.55-2.67,3.8-4.89,6.5-6.45c2.59-1.49,5.61-2.37,8.82-2.42v0C33.93,0.76,33.9,0.76,33.86,0.76z"/>
</g>
</svg>
