<?xml version="1.0" encoding="UTF-8"?>
<!DOCTYPE svg PUBLIC "-//W3C//DTD SVG 1.1//EN" "http://www.w3.org/Graphics/SVG/1.1/DTD/svg11.dtd">
<svg xmlns="http://www.w3.org/2000/svg" version="1.1" width="71px" height="58px" style="shape-rendering:geometricPrecision; text-rendering:geometricPrecision; image-rendering:optimizeQuality; fill-rule:evenodd; clip-rule:evenodd" xmlns:xlink="http://www.w3.org/1999/xlink">
<g><path style="opacity:0.985" fill="#dfdede" d="M 4.5,-0.5 C 4.83333,-0.5 5.16667,-0.5 5.5,-0.5C 5.5,12.8333 5.5,26.1667 5.5,39.5C 3.5,39.5 1.5,39.5 -0.5,39.5C -0.5,27.5 -0.5,15.5 -0.5,3.5C 1.19107,2.13632 2.85774,0.802988 4.5,-0.5 Z"/></g>
<g><path style="opacity:0.996" fill="#d8d8d8" d="M 5.5,-0.5 C 6.83333,-0.5 8.16667,-0.5 9.5,-0.5C 9.5,12.8333 9.5,26.1667 9.5,39.5C 8.16667,39.5 6.83333,39.5 5.5,39.5C 5.5,26.1667 5.5,12.8333 5.5,-0.5 Z"/></g>
<g><path style="opacity:0.899" fill="#d0d0d0" d="M 9.5,-0.5 C 14.1667,-0.5 18.8333,-0.5 23.5,-0.5C 17.7212,2.38125 14.3879,7.04791 13.5,13.5C 12.1667,16.8333 12.1667,20.1667 13.5,23.5C 13.6659,28.5111 13.4993,33.5111 13,38.5C 11.9887,39.3366 10.8221,39.67 9.5,39.5C 9.5,26.1667 9.5,12.8333 9.5,-0.5 Z"/></g>
<g><path style="opacity:0.995" fill="#b7b7b7" d="M 23.5,-0.5 C 25.1667,-0.5 26.8333,-0.5 28.5,-0.5C 23.8316,5.19199 18.8316,9.85866 13.5,13.5C 14.3879,7.04791 17.7212,2.38125 23.5,-0.5 Z"/></g>
<g><path style="opacity:0.942" fill="#c3c3c3" d="M 28.5,-0.5 C 30.8333,-0.5 33.1667,-0.5 35.5,-0.5C 30.1667,5.16667 24.8333,10.8333 19.5,16.5C 17.5,18.8333 15.5,21.1667 13.5,23.5C 12.1667,20.1667 12.1667,16.8333 13.5,13.5C 18.8316,9.85866 23.8316,5.19199 28.5,-0.5 Z"/></g>
<g><path style="opacity:0.938" fill="#cccccc" d="M 35.5,-0.5 C 36.1667,-0.5 36.8333,-0.5 37.5,-0.5C 38.8333,0.5 40.1667,1.5 41.5,2.5C 36.8547,5.14528 33.188,8.81195 30.5,13.5C 26.7171,14.1224 23.0505,15.1224 19.5,16.5C 24.8333,10.8333 30.1667,5.16667 35.5,-0.5 Z"/></g>
<g><path style="opacity:0.969" fill="#bdbdbd" d="M 37.5,-0.5 C 40.8333,-0.5 44.1667,-0.5 47.5,-0.5C 48.5783,5.89169 49.9116,12.225 51.5,18.5C 51.0075,20.8185 50.0075,22.8185 48.5,24.5C 48.9306,18.972 48.2639,13.6387 46.5,8.5C 45.5569,5.89084 43.8903,3.89084 41.5,2.5C 40.1667,1.5 38.8333,0.5 37.5,-0.5 Z"/></g>
<g><path style="opacity:0.987" fill="#c8c8c8" d="M 47.5,-0.5 C 49.1667,-0.5 50.8333,-0.5 52.5,-0.5C 53.1817,4.89331 54.1817,10.2266 55.5,15.5C 54.205,16.4884 52.8717,17.4884 51.5,18.5C 49.9116,12.225 48.5783,5.89169 47.5,-0.5 Z"/></g>
<g><path style="opacity:0.983" fill="#d5d5d5" d="M 52.5,-0.5 C 53.8333,-0.5 55.1667,-0.5 56.5,-0.5C 57.5,4.16667 58.5,8.83333 59.5,13.5C 58.4863,14.6737 57.153,15.3404 55.5,15.5C 54.1817,10.2266 53.1817,4.89331 52.5,-0.5 Z"/></g>
<g><path style="opacity:0.981" fill="#e1e1e1" d="M 56.5,-0.5 C 58.1667,-0.5 59.8333,-0.5 61.5,-0.5C 62.1848,4.23871 63.1848,8.90538 64.5,13.5C 62.8333,13.5 61.1667,13.5 59.5,13.5C 58.5,8.83333 57.5,4.16667 56.5,-0.5 Z"/></g>
<g><path style="opacity:0.947" fill="#f0f0f0" d="M 61.5,-0.5 C 64.1667,-0.5 66.8333,-0.5 69.5,-0.5C 69.5,4.16667 69.5,8.83333 69.5,13.5C 67.8333,13.5 66.1667,13.5 64.5,13.5C 63.1848,8.90538 62.1848,4.23871 61.5,-0.5 Z"/></g>
<g><path style="opacity:0.987" fill="#dddddd" d="M 41.5,2.5 C 43.8903,3.89084 45.5569,5.89084 46.5,8.5C 43.8816,10.4517 41.5482,12.785 39.5,15.5C 37.2986,14.4336 34.9653,13.767 32.5,13.5C 31.8333,13.5 31.1667,13.5 30.5,13.5C 33.188,8.81195 36.8547,5.14528 41.5,2.5 Z"/></g>
<g><path style="opacity:0.895" fill="#f3f3f3" d="M 46.5,8.5 C 48.2639,13.6387 48.9306,18.972 48.5,24.5C 48.5,25.5 48.5,26.5 48.5,27.5C 46.9714,22.4627 43.9714,18.4627 39.5,15.5C 41.5482,12.785 43.8816,10.4517 46.5,8.5 Z"/></g>
<g><path style="opacity:0.97" fill="#d5d5d5" d="M 32.5,13.5 C 34.9653,13.767 37.2986,14.4336 39.5,15.5C 43.9714,18.4627 46.9714,22.4627 48.5,27.5C 48.5,28.8333 48.5,30.1667 48.5,31.5C 42.8702,29.0186 37.5368,26.0186 32.5,22.5C 32.5,19.5 32.5,16.5 32.5,13.5 Z"/></g>
<g><path style="opacity:0.944" fill="#e1e1e1" d="M 32.5,22.5 C 37.5368,26.0186 42.8702,29.0186 48.5,31.5C 48.5,34.8333 48.5,38.1667 48.5,41.5C 43.4749,37.6552 38.1416,34.3218 32.5,31.5C 32.5,28.5 32.5,25.5 32.5,22.5 Z"/></g>
<g><path style="opacity:0.967" fill="#eaeaea" d="M 32.5,31.5 C 38.1416,34.3218 43.4749,37.6552 48.5,41.5C 48.8333,41.5 49.1667,41.5 49.5,41.5C 55.8996,45.8899 62.5663,49.8899 69.5,53.5C 69.5,54.8333 69.5,56.1667 69.5,57.5C 68.5,57.5 67.5,57.5 66.5,57.5C 55.9208,49.1973 44.5875,41.864 32.5,35.5C 32.5,34.1667 32.5,32.8333 32.5,31.5 Z"/></g>
<g><path style="opacity:0.981" fill="#f2f2f2" d="M 32.5,35.5 C 44.5875,41.864 55.9208,49.1973 66.5,57.5C 62.8333,57.5 59.1667,57.5 55.5,57.5C 48.3412,52.0832 40.6746,47.4166 32.5,43.5C 32.5,40.8333 32.5,38.1667 32.5,35.5 Z"/></g>
<g><path style="opacity:0.917" fill="#f2f2f2" d="M -0.5,41.5 C 4.09858,41.2 8.59858,41.5333 13,42.5C 13.7777,47.5842 13.6111,52.5842 12.5,57.5C 8.16667,57.5 3.83333,57.5 -0.5,57.5C -0.5,52.1667 -0.5,46.8333 -0.5,41.5 Z"/></g>
<g><path style="opacity:0.917" fill="#e2e2e2" d="M 49.5,41.5 C 55.8421,41.3338 62.1754,41.5005 68.5,42C 69.4601,45.73 69.7935,49.5633 69.5,53.5C 62.5663,49.8899 55.8996,45.8899 49.5,41.5 Z"/></g>
<g><path style="opacity:0.873" fill="#fdfdfd" d="M 32.5,43.5 C 40.6746,47.4166 48.3412,52.0832 55.5,57.5C 51.5,57.5 47.5,57.5 43.5,57.5C 36.9875,55.1724 33.3208,50.5058 32.5,43.5 Z"/></g>
</svg>
